<svg xmlns="http://www.w3.org/2000/svg" width="470.696" height="400.941" viewBox="0 0 470.696 400.941">
  <g id="Interactive_Map" data-name="Interactive Map" transform="translate(-597.914 -294.54)">
    <path id="Path_388" data-name="Path 388" d="M1855.921,736.766a5.807,5.807,0,0,1-1.6,3.983c-1.166.968-7.675.393-12.935-.084-9.468-.841-12.371-.827-13.508.07a6.666,6.666,0,0,0-2.036,3.913c-.434,1.684-.884,3.41-2.917,4.547l-1.529.854c-4.5,2.54-12.892,7.239-16.791,7.591-2.006.182-3.576-1.109-5.092-2.358-1.741-1.416-3.549-2.89-5.976-2.118-2.792.884-2.413,5.33-2.049,9.622l.014.168c.239,2.568.506,5.485-.182,6.859-.673,1.391-2.175,1.334-4.236,1.082-1.629-.182-2.749-.266-3.522.364a2.225,2.225,0,0,0-.743,1.67c-.2,2.44,1.375,3.576,2.636,4.49,1.236.884,1.979,1.516,1.852,2.706-.125,1.109-1.809,2.974-3.492,4.856-2.608,2.9-4.446,5.092-4.251,6.846a2.077,2.077,0,0,0,.9,1.527c2.229,1.656,5.33-.014,7.828-1.359,1.767-.941,3.422-1.838,4.137-1.277.786.589.771,1.163.659,2.1a3.155,3.155,0,0,0,1.334,3.381c1.022.786,1.879,1.066,3.029.041.464-.42.716-.645,1.472-.041a5.489,5.489,0,0,1,1.347,2.692c.646,2.118,1.389,4.531,4.826,4.867,2.524.254,4.742-.982,6.705-2.088,2.54-1.418,3.872-1.979,5.078-.984a2.088,2.088,0,0,1,.954,1.7c.043,1.952-2.651,4.449-6.439,7.746l-1.415,1.22c-23.105,19.92-25.854,25.445-25.659,28.026a18.513,18.513,0,0,0,1.193,5.192c.786,2.159,1.15,3.142-1.024,4.474-1.8,1.082-12.708,2.961-22.417,4.631-15.766,2.72-23.033,4.124-24.464,5.287l-.141.114c-1,.645-3.983,2.343-7.828,4.531-26.836,15.275-57.85,33.582-65.257,42.716l-.03-.086c-.364-1.836-2.158-11.276-.7-17.9a14.62,14.62,0,0,0-1.025-8.359,1.56,1.56,0,0,0-.393-.561c-4.742-4.11-6.41-4.335-8.936-3.831a6.821,6.821,0,0,1-.827.168,1.357,1.357,0,0,0-.393.141,10.121,10.121,0,0,1-5.219,1.277,4.543,4.543,0,0,1-1.472-.366,3.118,3.118,0,0,1-.716-.448,1.5,1.5,0,0,1-.154-.127l-.055-.071a.858.858,0,0,1-.113-.1l-.125-.125a.263.263,0,0,0-.03-.03,3.777,3.777,0,0,1-.5-.827.638.638,0,0,0-.057-.1c2.036-2.679,11.013-7.968,14.085-9.763l.239-.141c1.726-1.009,3.128-1.838,4.053-2.454,3.2-2.09,20.972-20.047,22.655-22.867,2.47-4.222,11.013-30.862,11.995-36.683.463-2.708,5.414-7.841,9.847-11.306a9.608,9.608,0,0,0,3.226-7.968,7.657,7.657,0,0,0-3.422-6.342c-3.381-2.117-7.884-2.215-13.719-.266a35.8,35.8,0,0,1-5.737-.982c-8.475-1.824-21.281-4.56-28.463,2.356a33.767,33.767,0,0,1-3.649,3.086c-2.89,2.077-5.512,3.031-7.814,2.863a6.829,6.829,0,0,1-3.3-1.207c-.814-.561,1.32-4.615,2.6-7.041.686-1.307,1.415-2.695,2.145-4.238a7.467,7.467,0,0,0,.184-6.523c-2.05-4.46-8.25-6.285-8.95-6.48a21.137,21.137,0,0,0-7.268-.043c-1.852.225-5.751-2.806-9.468-7.407-.477-.6-1.683-2.427-2.736-4.053-2.2-3.367-2.876-4.335-3.3-4.672l-.1-.1a7.931,7.931,0,0,1,2.944-2.231,23.658,23.658,0,0,1,2.372-1.123c1.445-.588,1.879-.911,3.828-2.86l3.9-3.9a.672.672,0,0,0,.111-.1c1.193-.364,1.922-1.3,3.381-3.465l.548-.8c1.738-2.608,1.738-2.622,3.885-2.384,3.576.393,5.205-2.342,6.073-3.817.225-.377.393-.629.507-.784l3.913,1.3.688.125c.434,0,4.208.084,5.905-2.538.7-1.066,1.248-2.89-.057-5.612-.293-.616-.35-.713,1.516-2.061,1.529-1.136,4.376-3.256,3.254-6.805a1.325,1.325,0,0,1,.084-.616c0-.014,0-.014.016-.03.182-.35.393-.713.6-1.036l.043.055,1.375-1.641a4.515,4.515,0,0,1,.336-.407c.057-.057,3.452-4.251,5.569-7.575,1.388-1.711,2.02-2.651,2.2-3.408l.07-.423a1.375,1.375,0,0,0-.239-.925,21.461,21.461,0,0,0,3.086-.729l.436-.014.141-.168h.014l.252-.3c.884-1,1.432-1.166,3.828-1.6,1.166-.211,1.559-.279,3.592,6.439,1.4,4.685,4.6,8.123,8.557,9.2a8.9,8.9,0,0,0,8.586-2.061c1.359-1.25,4.067-1.054,6.957-.829,3.506.252,7.477.548,10.365-1.95,1.559-1.347,2.611-2.188,3.579-2.961a54.142,54.142,0,0,0,5.71-5.092c3.351-3.338,7.757-2.131,9.5-1.459a3.569,3.569,0,0,0,2.218.154c.364.211,1.009.632,1.586,1.009,4.024,2.667,11.531,7.632,17.463,4.237.52-.3.927-.5,1.25-.672,1.261-.7,2.454-1.347,2.427-3.381a5.343,5.343,0,0,1,.252-1.613c.252-.968,3.029-1.166,4.419-1.011l5.751.8a8.779,8.779,0,0,0,8.348.027c4.179-2.131,3.829-5.61,3.506-8.977a37.636,37.636,0,0,1-.239-3.872v-.041a3.7,3.7,0,0,1,.168-1.152,2.054,2.054,0,0,1,.281-.645,2.521,2.521,0,0,1,.336-.434,2.414,2.414,0,0,1,.589-.464,2.329,2.329,0,0,1,.393-.2,4.2,4.2,0,0,1,.632-.211,4.734,4.734,0,0,1,.686-.125c-.2,3.942-.238,7.028,1.193,8.261,1.4,1.193,3.508.477,5.373-.141,2.568-.854,3.842-1.052,4.544.043.7,1.122.043,3.183-.491,4.84-.618,1.909-.841,2.877-.589,3.606l.7,2.074,1.222-1.163a7.188,7.188,0,0,0,1.036-.211c2.765-.729,4.462-2.692,6.116-4.587,2.036-2.343,4-4.558,7.773-4.376a26.84,26.84,0,0,1,6.634,1.643c6.664,2.158,15.782,5.119,26.093-1.754a6.462,6.462,0,0,1,5.919-.759,1.419,1.419,0,0,1,.925,1.152c.029.757-.616,2.4-5.287,5.049-6.5,3.676-7.954,8.573-8.039,12.022-.071,3.565,1.445,7.253,3.563,8.573l1.081.645c4.124,2.5,13.776,8.318,12.2,13.915-1.009,3.62-5.428,4.869-9.37,5.976-3.24.913-5.26,1.572-6.073,2.933l-.084.155a18.356,18.356,0,0,0-1.095,2.02l-.534,1.331,1.361.5a17.287,17.287,0,0,0,1.852.45l.239.057c1.556.309,3.844-.659,6.93-2.049,2.763-1.234,5.891-2.652,6.859-1.57C1855.43,731.533,1856.105,734.212,1855.921,736.766Z" transform="translate(-787.341 -291.403)" fill="#e18c3c"/>
    <path id="Path_389" data-name="Path 389" d="M1620.875,383.5a40.3,40.3,0,0,0,.252,4.124c.337,3.437.379,4.994-1.992,6.2a5.852,5.852,0,0,1-5.864-.056l-.252-.154-6.285-.87v.014a10.762,10.762,0,0,0-5.611.729,3.618,3.618,0,0,0-1.936,2.315,7.915,7.915,0,0,0-.35,2.343v.112a.931.931,0,0,1-.014.2,4.732,4.732,0,0,1-.926.575c-.337.183-.772.407-1.318.73-4.433,2.539-11-1.81-14.533-4.152-2.076-1.375-2.862-1.894-3.8-1.4a.6.6,0,0,1-.533-.042c-1.753-.674-7.842-2.539-12.485,2.1a52.737,52.737,0,0,1-5.513,4.91c-.954.757-2.034,1.613-3.633,2.988-2.006,1.74-5.078,1.515-8.347,1.276-3.339-.252-6.789-.5-9.034,1.571a6.147,6.147,0,0,1-5.934,1.417c-3.03-.828-5.513-3.549-6.635-7.295-2.076-6.9-3.058-9.062-6.761-8.4a15.856,15.856,0,0,0-2.834.687c-.2.07-.393.154-.575.239a3.816,3.816,0,0,0-.407.224,1.025,1.025,0,0,0-.266.155,4.817,4.817,0,0,0-.912.744,1.617,1.617,0,0,0-.168.154,16.61,16.61,0,0,1-3.058.659,6.492,6.492,0,0,1-3.773-.589c-.084-.042-.168-.1-.267-.14-.014-.014-.028-.028-.042-.028-1.179-.7-2.68-1.613-2.9-1.81l-.168-.211a6.652,6.652,0,0,0-4.643-2.3,5.906,5.906,0,0,0-4.714,2.329,19.519,19.519,0,0,0-2.637,3.984c-1.052,1.894-1.178,1.894-1.585,1.908-3.058.056-5.92,0-5.948,0l-.659.07c-.982.267-5.92,1.767-7.617,6.3a31.6,31.6,0,0,0-1.3,3.928c-.112.393-.238.856-.491,1.669-2.777.589-4.769,2.357-6.116,8.978a26.63,26.63,0,0,1-.856,3.31c-4.04-3.451-7.786-1.052-9.707.2a7.947,7.947,0,0,1-1.431.786c-1.459-.786-5.625-7.407-7.042-9.652-1.193-1.908-1.992-3.17-2.581-3.956-.561-.744-1.894-1.852-4.587-1.066-4.026,1.137-12.12,6.972-12.6,11.966a14.749,14.749,0,0,1-.449,3.086,6.124,6.124,0,0,1-1.066.407.873.873,0,0,1-.126.028c-.2.028-.561.056-1.024.07a31.31,31.31,0,0,0-.954-4.587l-.112-.393-.309-.28a108.721,108.721,0,0,0-10.619-8.332,4.271,4.271,0,0,1-1.725-4.643c.786-4.012,5.162-8.417,9.188-9.231a5.154,5.154,0,0,1,1.01-.1c2.09,0,4.1,1.234,6.1,2.483,2.076,1.3,4.026,2.539,5.934,2.076a5.1,5.1,0,0,0,3.016-2.652c1.669-2.806,1.922-5.808,2.146-8.543.211-2.68.393-4.349,1.5-5.134.884-.6,2.371-.617,4.545-.014,1.992.547,3.7,1.094,5.233,1.585l.449.154c3.311,1.08,4.84,1.487,5.751,1.333l1.066-.2.07-1.08a6.424,6.424,0,0,0-.6-2.721c-.617-1.669-.519-2.146-.407-2.273s.659-.042,1.066.014a2.984,2.984,0,0,0,1.052.028l2.076-.365-.926-1.431a7.4,7.4,0,0,0-.1-1.052c-.421-2.637-4.321-3.8-8.094-4.924-3.17-.94-6.453-1.922-7.042-3.647a3.084,3.084,0,0,1,.771-2.708c5.078-6.986,7.884-6.144,7.926-6.13.421.14,10.423,3.311,13.579,1.249a2.148,2.148,0,0,0,1-1.585c.224-2.006-.814-4.223-1.936-6.649-1.318-2.834-2.833-6.06-1.711-8.725.168-.421.547-1.136,1.122-1.179,1.515-.182,3.914,3.858,5.667,6.762.561.926,1.066,1.768,1.5,2.413.912,1.3,2.076,1.852,3.086,1.4,2.287-1.108,2.23-6.8-.154-15.235-2.834-10.03-1.01-21.379,4.334-26.99a10.829,10.829,0,0,1,10.675-3.255c1.3,1.067,1.627,1.571,1.711,1.782l.224.618.617.21c.224.084.561.183.982.309l.715.21.519-.267c1.01-.547,1.543-2.048,2.735-7.659.87-4.068,1.852-8.655,3.746-10.1,1.445-1.108,1.6-.968,2.02-.575,1.024,1.038,2.651,2.034,8.739.631,9.791-2.216,14.323,12.471,16.258,18.769l.211.659c.1.294.182.575.252.8,1.4,4.265,6.144,4.335,10.717,4.4.982.015,2.272.028,3.437.112,2.427.2,3.619-1.333,4.769-2.806,1.5-1.908,3.184-4.068,8.038-2.806,3.661.968,6.635,7.7,9.778,14.813,4.04,9.174,8.627,19.569,15.767,18.517,7.337-1.094,9.09-2.89,11.152-4.994a16.561,16.561,0,0,1,6.032-4.251c.561.015,1,.239,1.347,1.164a13.637,13.637,0,0,1,.589,3.577l.014.14c.182,2.483.379,5.036,2.118,5.653a5.042,5.042,0,0,0,2.132.392l1.473-.1-.084-.673c3.619,1.879,8.866,5.457,9.118,8.024.154,1.627-.786,2.244-2.273,3.03-1.15.6-2.455,1.29-2.006,2.932.379,1.417,1.992,2.637,4.6,4.517a48.5,48.5,0,0,1,7.449,6.3l-.267.028.463,1.627c.014.042.028.1.042.155l-.505.056.463,1.613a4.1,4.1,0,0,1,.1.561A5.721,5.721,0,0,0,1620.875,383.5Z" transform="translate(-629.869 0)" fill="#fff"/>
    <path id="Path_390" data-name="Path 390" d="M1399.33,834.122c-.407.323-10,7.855-10.886,13.032-1.024,6.06-9.511,32.1-11.657,35.729a15.01,15.01,0,0,1-1.515,1.88l-.014.014c-.575.673-1.3,1.473-2.132,2.371l-9.455,9.679a.014.014,0,0,0-.014.014c-1.6,1.571-3.128,3.058-4.461,4.335l-.028.028-.014.014a51.287,51.287,0,0,1-4.138,3.619c-.87.575-2.23,1.389-3.928,2.385l-.239.126c-5.232,3.072-10.282,6.187-13.186,8.754-.07-.421-.112-.813-.154-1.192V914.9c-.084-.659-.154-1.248-.2-1.8a.688.688,0,0,1-.014-.168c-.042-.421-.07-.814-.1-1.15a6.631,6.631,0,0,1,.126-2.343,2.133,2.133,0,0,1,.309-.519,3.682,3.682,0,0,1,.379-.435,2.669,2.669,0,0,1,.393-.309,4.014,4.014,0,0,1,.505-.309,2.727,2.727,0,0,1,.365-.169,4.682,4.682,0,0,1,.758-.253l.8-.28c4.307-2.441,6.256-4.966,5.948-7.743-.407-3.662-11.531-20.3-13.074-21.435a6.264,6.264,0,0,0-4.98-.94,6.252,6.252,0,0,1-1.585-3.661,8.443,8.443,0,0,0,.421-8.122,1.376,1.376,0,0,1-.112-1.052,3.019,3.019,0,0,0-.659-2.833,5.761,5.761,0,0,0-.631-.743,2.167,2.167,0,0,0-.182-.182,2.557,2.557,0,0,0-.2-.2c-.07-.056-.14-.126-.225-.2a11.879,11.879,0,0,0-1.108-.842l-.337-.21a15.806,15.806,0,0,0-2.076-1.052c-.154-.07-.337-.126-.505-.2-.519-.2-1.066-.364-1.669-.547a30.874,30.874,0,0,0-9.385-.9c-12.106-4.812-30.09-12.05-32.475-13.215q-.168-.252-.337-.463a6.254,6.254,0,0,0-.561-.617,3.02,3.02,0,0,0-.309-.295.31.31,0,0,0-.07-.056,2.21,2.21,0,0,0-.365-.266,2.968,2.968,0,0,0-1.74-.575,4.012,4.012,0,0,0-2.932,1.7,1.142,1.142,0,0,0-.168.28c-1.922,4.321-4.279,7.435-5.7,7.575-.14.014-13.354,2.146-13.439,5.962l-.014.954c-.028,2.385-.028,3.268-1.6,4.4a.832.832,0,0,0-.1.056,64.052,64.052,0,0,1-7.294,1.8c-1.263.252-2.6.519-3.886.772-.309.056-.617.112-.912.168a.5.5,0,0,1-.056-.126,18.733,18.733,0,0,1-.884-4.475V824.064c0-4.377-6.691-10.465-13.944-16.413-.841-.673-1.529-1.234-1.95-1.6-.744-1.01-.155-7.323,4.559-19.948l.533-.336-.07-.519c.407-.238.814-.449,1.207-.645l.407-.238.715-1.052.281-1.01.224-.856c7.294-3.493,14.7-5.4,20.916-5.4h.561c6.971,0,8.122-2.286,9.216-6.088.561-1.908,1.122-3.886,3.254-5.527,2.034-1.586,4.812-1.137,7.253-.744.014.014.014.014.028.014,0,.224.9.294,2.16.281.575,0,1.234-.028,1.908-.056,1.22-.056,2.525-.154,3.605-.252a.175.175,0,0,0,.084-.014c.758-.07,1.4-.14,1.81-.2h.014c.112-.014.2-.028.28-.042a1.1,1.1,0,0,0,.154-.042c2.96-.954,3.03-1.81,3.437-5.892.323-3.338,7.014-8.529,10.577-9.539.785-.224,1.361-.211,1.571.056.589.785,1.529,2.286,2.483,3.815,4.181,6.65,6.8,10.339,8.669,10.844,1.249.365,2.469-.407,3.745-1.22,2.357-1.515,4.222-2.413,6.691,0l.028.042a2.854,2.854,0,0,0,1.164,1.206l1.964.87v-1.7c.435-.631,1.151-2.09,1.866-5.667,1.277-6.271,2.82-6.579,4.068-6.818a1.973,1.973,0,0,0,1.866-1.487c.337-1.108.505-1.7.631-2.2a33.057,33.057,0,0,1,1.221-3.647c1.164-3.114,4.783-4.307,5.667-4.545.449,0,3.128.056,5.962,0,2.175-.028,2.988-1.487,4.026-3.367a17.394,17.394,0,0,1,2.287-3.493,3.031,3.031,0,0,1,2.511-1.361,3.96,3.96,0,0,1,2.623,1.347c.449.589,1.473,1.206,3.9,2.665h.014c.056.042.126.084.2.126.912.533,2.118,1.248,2.932,1.781.126.084.239.168.351.238-.323.477-.87,1.165-1.487,1.922,0,.014-.014.028-.042.056-.533.646-1.108,1.347-1.641,1.978-3.058,3.647-5.4,6.523-6.369,8.781v.014a4.181,4.181,0,0,0-.378,2.9c.491,1.543-.575,2.469-2.259,3.718-1.74,1.276-3.731,2.721-2.357,5.541.884,1.852.393,2.6.224,2.848a1.648,1.648,0,0,1-.323.379h-.014a4.9,4.9,0,0,1-2.96.9h-.042l-4.251-1.4a2.275,2.275,0,0,0-1.108-.126l-.014.014c-1.094.14-1.753,1.234-2.357,2.244a7.794,7.794,0,0,1-1.291,1.768,2.387,2.387,0,0,1-2.062.687,8.146,8.146,0,0,0-3,.07c-1.347.365-2.118,1.417-3.535,3.549l-.519.8c-1.375,2.006-1.683,2.286-1.936,2.357a2.363,2.363,0,0,0-1.22.786l-1.263,1.262-.028.028-2.609,2.609c-1.8,1.8-1.95,1.852-2.9,2.244-.295.112-.631.253-1.038.449h-.014c-.421.2-.926.449-1.571.786-1.95,1.038-4.307,2.651-4.5,4.559a2.717,2.717,0,0,0,1.122,2.357c.337.365,1.754,2.525,2.792,4.11,1.192,1.824,2.329,3.563,2.9,4.279,1.669,2.09,5.331,6.228,8.852,7.8a.354.354,0,0,0,.1.056,5.852,5.852,0,0,0,3.072.561,25.177,25.177,0,0,1,3.409-.238,14.639,14.639,0,0,1,2.736.21,15.492,15.492,0,0,1,3.422,1.445.42.42,0,0,1,.112.056,8.391,8.391,0,0,1,3.605,3.437,4.755,4.755,0,0,1-.168,4.166c-.7,1.473-1.417,2.848-2.09,4.124-2.455,4.657-4.559,8.683-1.7,10.661a6.422,6.422,0,0,0,1.571.856c.014.014.028.014.042.028s.028.014.042.014l.042.042h.014c.014.014.014.014.028.014l.014.014c3.016,1.319,6.4.954,10.1-1.094a30.42,30.42,0,0,0,6.439-4.91,11.431,11.431,0,0,1,3.353-2.216c6.481-2.862,15.95-.842,22.585.589,4.265.926,6.116,1.263,7.14.912,5.05-1.684,8.781-1.684,11.391-.042a.143.143,0,0,1,.07.056,4.941,4.941,0,0,1,2.048,4.054A6.935,6.935,0,0,1,1399.33,834.122Z" transform="translate(-481.886 -335.959)" fill="#fff"/>
    <path id="Path_391" data-name="Path 391" d="M752.937,1064.409a17.7,17.7,0,0,1-5.681,1.487l-2.174.126-.561,2.118c-.084.323-.715,1.908-4.194,1.024-7.659-1.894-14.519-.351-20.383,4.587a5.35,5.35,0,0,1-1.01.294,13.792,13.792,0,0,1-.533-2.006c-.519-2.385-1.711-7.954-7.884-7.2-5.625.687-9.707,5.415-13.663,10.03-2.217,2.553-4.489,5.2-6.818,6.789-6.172,4.223-3.732,9.343-2.539,11.854.435.94.982,2.091.8,2.5-.463,1.024-.8,1.192-1.192,1.389a3.949,3.949,0,0,0-2.1,2.343c-.421,1.487.224,2.735.968,4a8.768,8.768,0,0,0,4.475,3.521v.772c-3.381,2.4-6.3,9.16-7.084,12.05-.1-.141-.2-.28-.281-.393-.982-1.389-2.6-3.7-5.345-3.171-1.725.379-3.549,1.683-5.415,3.03-2.749,2.006-4.966,3.451-6.4,2.413-1.122-.828-2.483-3.409-3.8-5.92-2.413-4.573-4.166-7.617-6.4-8.276a2.851,2.851,0,0,0-2.315.281c-4.265,2.455-14.982,20.551-16.188,22.6l-.5.842.393.912c2.287,5.2,2.567,8.15,2.118,8.852-.786.112-1.641-.94-2.777-2.427-1.4-1.838-2.988-3.9-5.4-3.9a4.567,4.567,0,0,0-.743.07c-.519.084-.926.14-1.235.168l-.982.126-.463.87a3.192,3.192,0,0,1-.7.645c-2.357,1.81-17.268-.365-19.218-2.82-.9-1.108,1.4-4.152,3.086-6.369,1.852-2.441,3.17-4.278,3.367-5.836a10.409,10.409,0,0,0-2.034-7.491,4.482,4.482,0,0,0-3.353-1.725c-2.216-.14-3.746,1.235-4.868,2.259l-.182.168a7.129,7.129,0,0,1-1.136.884,2.688,2.688,0,0,1,.126-.309,5.52,5.52,0,0,0,.182-4.433.3.3,0,0,1-.014-.267c.323-.715,2.455-1.487,4.335-2.175l.168-.07c3.114-1.15,6.649-2.455,8-5.008.968-1.824,3.759-1.487,7.126-.9,2.553.449,3.76.589,4.685-.014l.828-.533.056-.968c.112-2.006-1.964-3.577-7.884-7.028l-.14-.084c-2.371-1.375-4.615-2.665-5.429-3.648-1.333-1.6-.491-6.8.07-10.268l.056-.379a24.278,24.278,0,0,0,.421-3.367v-1.3l-1.192-.477c-1.094-.449-2.974-.378-7.477.267-1.192.154-2.483.336-3.395.393.715-.771,2.02-1.95,3.184-2.988,2.413-2.146,5.134-4.587,6.228-6.509l2.1-3.717-4.18.87c-.659.14-1.543.407-2.3.631l-.351.1c-2.2.687-5.541,1.739-6.355.715-1.964-2.51-3.563-6.691-1.571-10.24,1.066-1.894,3.142-3.115,5.26-4.363a16.378,16.378,0,0,0,3.255-2.286l2.806-2.876-4-.393c-.94-.084-2.329-.084-3.549-.07-1.838.014-5.26.056-5.724-.561a.374.374,0,0,1,.028-.14l.575-1.585c1.192-3.227,2.665-7.239,1.782-12.387-.224-1.291.589-2.567,2.413-3.788,4.012-2.694,10.872-3.675,12.415-2.707,3.409,2.146,15.333-1.6,18.812-4.195,2.006-1.5,3.255-.883,3.83-.379l.7.6.926-.168c3.759-.7,12.485-2.736,12.373-6.439l-.084-1.684c-.14-2.581-.252-4.811.954-7.056.589-1.08,1.052-1.193,1.192-1.235.786-.2,1.95.547,3.24,1.389l.281.169a7.4,7.4,0,0,1,1.908,2.918c.926,1.95,1.978,4.166,4.4,4.461a11.069,11.069,0,0,0,4.98-1.066c2.16-.814,3.17-1.066,3.717-.491a4,4,0,0,1,.884,2.469,4.746,4.746,0,0,0,1.936,3.9c2.1,1.4,12.962,2.048,19.106.294,2.623-.758,4.222-1.838,4.9-3.31,1.22-2.708,1.7-6.888,2.132-10.577.407-3.479.828-7.056,1.739-8.417.449-.66,3.2-2.862,20.144-3.9a.413.413,0,0,1,.336.07c.379.337.421,1.627.463,2.581a11.183,11.183,0,0,0,.112,1.445l.435,2.791,2.441-1.445a22.941,22.941,0,0,0,4.377-4.082c1.81-2.02,5.541-3.83,8.346-4.924-6.242,17.773-3.395,20.284-2.413,21.14.463.421,1.192,1.01,2.09,1.753,10.339,8.473,12.513,11.952,12.513,13.4v36.066A23.212,23.212,0,0,0,752.937,1064.409Z" transform="translate(0 -534.921)" fill="#fff"/>
    <path id="Path_392" data-name="Path 392" d="M1182.194,1343.714c-.028.084-.056.182-.1.281-.056.168-.112.35-.182.519-.084.224-.168.449-.239.659-1.641,4.25-3.689,7.042-8.024,7.042a17.644,17.644,0,0,1-4.531-.308.5.5,0,0,0-.154-.028,5.64,5.64,0,0,0-1.782.224l-.617.112c-1.95.435-1.908,2.077-1.88,3.661.056,2.287.126,4.657-4.1,5.822-7.687,2.132-12.317,3.423-21.7,24.156-2.721,5.948-6.579,12.5-9.413,17.3l-.253.421a67.641,67.641,0,0,0-3.816,6.846,2.938,2.938,0,0,1-2.076,1.823,6.967,6.967,0,0,1-5.836-1.684c-2.385-1.88-2.357-2.412-2.3-3.7a9.191,9.191,0,0,0-.084-1.8,5.49,5.49,0,0,0-4.082-5.2,3.569,3.569,0,0,0-4.082,1.459c-.968,1.656-.309,3.591.238,5.149.561,1.585.743,2.413.252,2.848-.6.561-2.244.351-3.816.14-2.357-.351-4.222-.519-5.19.547-.7.772-.926,2.118-1.22,4.237l-.042.309c-.281,2.273-.631,5.092-2.174,5.667a8.786,8.786,0,0,1-2.413.182c-8.108,0-24.451-2.694-26.892-4.811-1.7-1.459-2.427-3.353-3.282-5.555a22.093,22.093,0,0,0-2.834-5.541c-1.5-1.95-4.124-2.455-6.481-2.455a20.688,20.688,0,0,0-4.784.6c-4.7-.309-10.984-1.123-13.256-2.455-1.641-.954.673-7.337,2.357-11.994,2.216-6.158,2.707-8.136,2.273-9.315-.828-1.781-3.226-2.483-5.611-3.2a9.887,9.887,0,0,1-3.465-1.4c-.1-.1-.154-.2-.14-.267.056-.547,1.445-1.417,2.721-2.216,2.5-1.515,3.8-2.5,4.026-3.689.224-1.22-.7-2.455-2.034-4.068s-2.819-3.451-2.455-5.429c.421-2.329,1.641-2.567,3.773-2.778a11.8,11.8,0,0,0,2.483-.421c2.665-.884,8.711-9.09,8.992-11.615a1.425,1.425,0,0,0-.393-1.136,1.37,1.37,0,0,0-1.108-.421c-1.936.141-6.046,1.824-11.278,4.04-3.858,1.627-7.491,3.156-8.6,3.184-.056,0-.281-.015-.351-.141-1.024-1.417,2.006-9.722,3.3-13.256.266-.716.505-1.361.673-1.852.94-2.693-1.515-5.3-3.689-7.617a14.791,14.791,0,0,1-2.82-3.605.594.594,0,0,1,.014-.491c.519-.94,3.661-1.515,6.2-1.978l.309-.056a20.746,20.746,0,0,0,4.755-1.22,1.422,1.422,0,0,0,.687-.87,1.459,1.459,0,0,0-.154-1.108l-.477-.771c-1.964-3.184-5.625-9.1-7.926-11.125-1.22-1.066-3.17-1.515-4.924-1.922-2.427-.561-3.507-.954-3.451-1.74l.07-.842c.252-3.044.758-9.371-2.806-10.535-.954-.323-2.16.056-4.545,1.389l-4.938.659a1.211,1.211,0,0,0-.533.183c-1.136.688-2.329,1.389-3.507,1.964-.281.14-.561.267-.828.393a3.5,3.5,0,0,1-.379-.07c-1.557-.266-4.307-1-5.387-2.805-.168-.294-.687-1.164-.631-1.375.028-.084.267-.21.435-.295a5.452,5.452,0,0,0,2.693-2.974c.828-1.81-.014-3.591-.842-5.372-1.22-2.581-2.385-5.008,1.431-7.617,2.693-1.838,5.12-4.657,7.477-7.393,3.521-4.1,7.168-8.347,11.517-8.866,2.679-.337,3.507,1.22,4.237,4.63.393,1.781.785,3.6,2.174,4.293,1,.533,2.329.406,4.18-.365a1.334,1.334,0,0,0,.379-.238,18.759,18.759,0,0,1,17.647-4.068c5.246,1.3,7.547-1.291,8.15-3.2a21.285,21.285,0,0,0,6.635-1.754l.575-.267.1-.042,1.964-.884c.365-.07.729-.14,1.136-.21a2.842,2.842,0,0,0,.337-.07c.281-.042.575-.1.87-.154.168-.042.337-.07.505-.1.477-.1.954-.2,1.459-.295h.014c.729-.14,1.459-.295,2.174-.449a36.167,36.167,0,0,0,6.888-1.908c.056-.042.112-.07.168-.112,2.75-1.992,2.764-4.054,2.792-6.677l.014-.7c1.263-1.263,9.146-3.213,10.9-3.451,3.311-.323,6.116-5.064,7.912-9.062a1.368,1.368,0,0,1,.617-.477c.112.014.589.295,1.234,1.29.014.028.042.056.07.1a8.477,8.477,0,0,0,2.413,1.262c.589.267,1.333.589,2.258.982,3.591,1.529,10,4.139,21.519,8.74.7.281,1.431.575,2.189.87h.028c1.7.687,3.465,1.4,5.373,2.16a1.625,1.625,0,0,0,.519.1h.07c10.773-.477,14.084,3.269,14.463,4.293a4.141,4.141,0,0,0,.239,2.96,5.727,5.727,0,0,1-.182,5.443c-1.248,1.711.267,4.9.954,5.976,1.248,1.964,2.469,2.2,3.282,2.034a3.729,3.729,0,0,1,2.974.379c1.557,1.4,11.685,16.974,11.966,19.513.168,1.5-1.333,3.156-4.447,4.938l-.183.056a6.743,6.743,0,0,0-4.6,3.591c-.631,1.431-.407,4.251.182,8.655.056.407.1.744.126.968.014.112.028.2.028.252a4.287,4.287,0,0,0,.014.73c.028.168.056.337.1.5.028.1.084.323.168.561.028.084.056.155.084.238l.238.618c0,.014.014.014.014.028a5.864,5.864,0,0,0,.757,1.22v.014a.014.014,0,0,0,.014.014c.028.028.042.056.07.084a1.473,1.473,0,0,0,.155.182v.014c.1.112.182.182.322.323.014.014.126.113.141.126a4.33,4.33,0,0,0,.379.323,6.423,6.423,0,0,0,1.22.744,7.026,7.026,0,0,0,2.413.6,10.785,10.785,0,0,0,3.97-.463.122.122,0,0,0,.07-.015c.014,0,.028-.014.056-.028.463-.182.926-.392,1.4-.631.182-.028.365-.07.533-.1.014,0,.014-.014.028-.014.154-.084.308-.141.463-.225.281-.056.533-.1.758-.154,1.347-.266,2.23-.449,6.214,2.974.056.154.112.295.154.449v.014a11.228,11.228,0,0,1,.631,5.976c-1.543,6.986.14,16.342.7,19.106l.042.182C1181.521,1341.063,1181.914,1342.648,1182.194,1343.714Z" transform="translate(-307.059 -724.911)" fill="#fff"/>
    <text id="ZAGORA" transform="translate(760.348 580.721)" fill="#1a1818" font-size="10" font-family="Lato-Black, Lato" font-weight="800"><tspan x="0" y="0">ZAGORA</tspan></text>
    <text id="OUARZAZATE" transform="translate(631.073 504.951)" fill="#1a1818" font-size="10" font-family="Lato-Black, Lato" font-weight="800"><tspan x="0" y="0">OUARZAZATE</tspan></text>
    <text id="ERRACHIDIA" transform="translate(909.739 449.091)" fill="#1a1818" font-size="10" font-family="Lato-Black, Lato" font-weight="800"><tspan x="0" y="0">ERRACHIDIA</tspan></text>
    <text id="MIDELT" transform="translate(869.762 356.973)" fill="#1a1818" font-size="10" font-family="Lato-Black, Lato" font-weight="800"><tspan x="0" y="0">MIDELT</tspan></text>
    <text id="TINGHIR" transform="translate(775.697 476.135)" fill="#1a1818" font-size="10" font-family="Lato-Black, Lato" font-weight="800"><tspan x="0" y="0">TINGHIR</tspan></text>
    <circle id="Ellipse_10" data-name="Ellipse 10" cx="5.249" cy="5.249" r="5.249" transform="translate(887.039 366.265)" fill="#ea6c13" stroke="#fff" stroke-miterlimit="10" stroke-width="4"/>
    <circle id="Ellipse_11" data-name="Ellipse 11" cx="5.249" cy="5.249" r="5.249" transform="translate(943.758 458.874)" fill="#ea6c13" stroke="#fff" stroke-miterlimit="10" stroke-width="4"/>
    <circle id="Ellipse_12" data-name="Ellipse 12" cx="5.249" cy="5.249" r="5.249" transform="translate(798.004 486.73)" fill="#ea6c13" stroke="#fff" stroke-miterlimit="10" stroke-width="4"/>
    <circle id="Ellipse_13" data-name="Ellipse 13" cx="5.249" cy="5.249" r="5.249" transform="translate(666.57 514.099)" fill="#ea6c13" stroke="#fff" stroke-miterlimit="10" stroke-width="4"/>
    <circle id="Ellipse_14" data-name="Ellipse 14" cx="5.249" cy="5.249" r="5.249" transform="translate(784.45 588.875)" fill="#ea6c13" stroke="#fff" stroke-miterlimit="10" stroke-width="4"/>
  </g>
</svg>
