<?xml version="1.0" encoding="UTF-8"?>
<svg width="42.723" height="55.818" version="1.1" viewBox="471.5 467 42.723 55.818" xml:space="preserve" xmlns="http://www.w3.org/2000/svg"><path d="m501.65 478.89c-3.9276-3.9262-7.6752-7.6687-8.7912-11.889-1.116 4.2206-4.8636 7.9639-8.7912 11.889-5.891 5.8874-12.57 12.56-12.57 22.567a21.362 21.362 0 1 0 42.723 0c0-10.007-6.6787-16.68-12.571-22.567m-21.072 27.544c-1.3104-0.0446-6.1438-8.3765 2.8238-17.248l5.9342 6.4822a0.5076 0.5076 0 0 1-0.0396 0.75672c-1.4162 1.453-7.452 7.5046-8.2022 9.5976-0.1548 0.432-0.38088 0.41616-0.51624 0.41112m12.282 10.981a7.3469 7.3469 0 0 1-7.3469-7.3469 7.6558 7.6558 0 0 1 1.831-4.8528c1.3248-1.62 5.5152-6.1754 5.5152-6.1754s4.1256 4.6224 5.5044 6.1603a7.1849 7.1849 0 0 1 1.8432 4.8679 7.3469 7.3469 0 0 1-7.3476 7.3469m14.062-11.914c-0.1584 0.34632-0.51768 0.92448-1.0022 0.94248-0.864 0.031-0.95616-0.41184-1.5955-1.3572-1.4018-2.075-13.64-14.865-15.929-17.338-2.0131-2.1758-0.28296-3.7102 0.51912-4.5137 1.0066-1.008 3.9456-3.9456 3.9456-3.9456s8.7624 8.3146 12.412 13.995c3.6504 5.6801 2.3918 10.596 1.6502 12.218" fill="currentColor" stroke-width=".72"/></svg>